<mxfile host="app.diagrams.net" modified="2023-06-27T15:38:26.538Z" agent="Mozilla/5.0 (Windows NT 10.0; Win64; x64) AppleWebKit/537.36 (KHTML, like Gecko) Chrome/114.0.0.0 Safari/537.36 Edg/114.0.1823.41" version="21.5.1" etag="TpO6e6U2H2ih-mZPv4l3" type="github">
  <diagram name="Page-1" id="Y8Ax-4fBE2mQpBMd2on1">
    <mxGraphModel>
      <root>
        <mxCell id="0" />
        <mxCell id="1" parent="0" />
      </root>
    </mxGraphModel>
  </diagram>
</mxfile>
